<?xml version="1.0" standalone="no"?>
<svg version="1.0" xmlns="http://www.w3.org/2000/svg"
 width="69.000000pt" height="74.000000pt" viewBox="0 0 69.000000 74.000000"
 preserveAspectRatio="xMidYMid meet">
<g transform="translate(0.000000,74.000000) scale(0.100000,-0.100000)"
fill="#000000" stroke="none">
<path d="M47 623 c-12 -11 -8 -41 8 -57 14 -14 14 -18 1 -39 -13 -19 -16 -64
-15 -265 0 -141 4 -242 10 -242 5 0 9 82 9 193 l0 194 29 29 c24 23 36 28 68
26 43 -4 36 14 -9 20 -19 2 -36 -6 -57 -26 l-31 -30 0 47 c0 49 16 70 34 45 6
-8 21 -17 34 -20 19 -5 21 -4 11 8 -6 8 -17 14 -24 14 -23 0 -32 24 -19 50 11
21 14 22 20 7 10 -28 21 -19 16 13 -3 21 0 30 9 30 27 0 36 -16 41 -67 l5 -52
-34 29 c-35 31 -53 38 -53 20 0 -5 6 -10 13 -10 15 0 97 -75 97 -89 0 -6 -20
-10 -45 -9 -76 1 -83 -12 -84 -154 -1 -79 3 -125 10 -135 9 -11 8 -17 -7 -27
-10 -8 -15 -18 -11 -22 4 -4 17 2 29 14 20 20 21 22 5 40 -19 21 -22 42 -6 42
8 0 8 4 0 14 -7 8 -11 31 -9 52 4 45 35 71 93 78 22 3 40 5 41 5 0 1 -2 21 -6
46 -4 25 -4 45 0 45 4 0 17 -12 31 -26 13 -14 33 -31 44 -36 17 -9 16 -7 -4
16 l-24 26 27 0 c46 0 61 71 25 121 -17 24 -24 27 -40 19 -10 -6 -19 -16 -19
-22 0 -6 6 -6 16 3 14 11 19 9 35 -11 44 -58 -16 -96 -68 -44 -21 21 -25 32
-20 65 9 69 10 69 196 69 l166 -1 -28 -20 c-15 -11 -24 -25 -21 -30 3 -6 19 3
34 20 21 22 40 31 72 34 24 2 -59 4 -183 5 l-226 2 -13 -25 c-8 -16 -11 -41
-7 -75 3 -27 2 -50 -2 -50 -11 0 -19 54 -16 108 l3 42 -72 0 c-40 0 -76 -3
-79 -7z m73 -14 c0 -7 -10 -9 -25 -7 -28 6 -29 4 -14 -24 9 -16 8 -19 -3 -16
-7 3 -14 17 -16 31 -3 24 0 27 27 27 17 0 31 -5 31 -11z m168 -159 c18 0 32
-4 32 -10 0 -5 -14 -10 -32 -10 -31 0 -68 23 -68 43 0 6 8 3 18 -6 10 -10 33
-17 50 -17z m-82 -44 c7 -31 -1 -46 -27 -46 -22 0 -60 -18 -69 -31 -3 -5 -7
10 -7 33 -3 53 10 68 58 68 33 0 40 -4 45 -24z"/>
<path d="M126 404 c-9 -25 -7 -41 4 -24 6 10 10 11 10 3 0 -7 5 -13 11 -13 8
0 8 4 -1 15 -6 8 -9 19 -5 25 3 5 2 10 -3 10 -6 0 -13 -7 -16 -16z"/>
<path d="M167 404 c7 -3 9 -12 6 -20 -3 -8 0 -14 6 -14 6 0 11 9 11 20 0 13
-6 20 -17 19 -10 0 -13 -3 -6 -5z"/>
<path d="M328 600 c-77 -6 -91 -16 -90 -62 1 -48 57 -79 70 -39 3 10 -2 11
-18 6 -44 -14 -58 59 -14 75 36 14 44 13 44 -7 1 -17 1 -17 14 0 20 26 93 24
101 -4 10 -30 -2 -35 -28 -11 -24 23 -38 19 -55 -14 -13 -24 2 -60 31 -78 15
-9 23 -6 42 17 13 15 22 34 19 41 -3 8 3 17 14 20 11 4 22 16 25 26 3 13 14
20 29 20 21 1 21 1 5 11 -12 7 -22 8 -28 2 -5 -5 -29 -7 -52 -4 -23 3 -72 4
-109 1z m129 -42 c-3 -7 -5 -2 -5 12 0 14 2 19 5 13 2 -7 2 -19 0 -25z m-48
-17 c20 -15 22 -21 12 -39 -22 -42 -69 -14 -57 33 8 30 13 30 45 6z"/>
<path d="M380 525 c-8 -9 -8 -15 -2 -15 12 0 26 19 19 26 -2 2 -10 -2 -17 -11z"/>
<path d="M146 585 c4 -8 10 -12 15 -9 11 6 2 24 -11 24 -5 0 -7 -7 -4 -15z"/>
<path d="M80 495 c0 -8 4 -15 10 -15 5 0 7 7 4 15 -4 8 -8 15 -10 15 -2 0 -4
-7 -4 -15z"/>
<path d="M318 388 c-2 -18 -11 -24 -38 -29 -42 -7 -19 -22 25 -16 23 3 29 9
30 31 1 34 -12 45 -17 14z"/>
<path d="M235 390 c3 -5 11 -10 16 -10 6 0 7 5 4 10 -3 6 -11 10 -16 10 -6 0
-7 -4 -4 -10z"/>
<path d="M153 323 c-24 -9 -13 -20 17 -15 25 3 30 1 30 -15 0 -11 -11 -30 -24
-42 -23 -22 -25 -22 -50 -6 -14 10 -26 13 -26 7 0 -5 10 -17 23 -25 22 -14 26
-13 55 5 66 41 44 119 -25 91z"/>
<path d="M160 291 c0 -6 5 -13 10 -16 6 -3 10 1 10 9 0 9 -4 16 -10 16 -5 0
-10 -4 -10 -9z"/>
<path d="M110 280 c0 -5 5 -10 10 -10 6 0 10 5 10 10 0 6 -4 10 -10 10 -5 0
-10 -4 -10 -10z"/>
<path d="M140 265 c0 -8 4 -15 10 -15 5 0 7 7 4 15 -4 8 -8 15 -10 15 -2 0 -4
-7 -4 -15z"/>
<path d="M204 194 c-18 -14 -18 -15 4 -4 12 6 22 13 22 15 0 8 -5 6 -26 -11z"/>
<path d="M120 116 c0 -2 7 -7 16 -10 8 -3 12 -2 9 4 -6 10 -25 14 -25 6z"/>
</g>
</svg>
