<svg version="1.0" xmlns="http://www.w3.org/2000/svg" width="74.000000pt" height="78.000000pt" viewBox="0 0 74.000000 78.000000" preserveAspectRatio="xMidYMid meet" style="width: 100px; height: auto;"> <g transform="translate(0.000000,78.000000) scale(0.100000,-0.100000)" fill="#000000" stroke="none">  <path d="M341 678 c-9 -15 -9 -23 -1 -33 13 -15 11 -20 -38 -87 -32 -44 -35 -45 -60 -33 -15 7 -48 15 -73 18 l-45 6 4 -62 c3 -34 11 -74 18 -89 8 -15 14 -29 14 -33 0 -10 -86 -5 -98 7 -10 10 -16 9 -28 -3 -13 -14 -13 -17 1 -29 12 -10 19 -10 27 -2 7 7 30 12 53 12 l40 -1 -35 -29 -35 -29 34 -35 c33 -34 33 -36 17 -60 -23 -36 -21 -42 22 -45 66 -5 87 -5 112 2 21 6 29 1 53 -34 22 -32 26 -44 16 -55 -9 -11 -8 -18 1 -30 12 -13 15 -13 28 0 12 12 13 18 3 30 -11 13 -8 22 16 55 19 28 33 39 43 34 14 -6 41 -7 128 -3 37 2 41 18 10 44 l-22 19 38 34 c30 28 35 37 25 49 -10 12 -8 17 7 29 10 8 14 15 9 15 -6 0 -16 -5 -21 -10 -7 -7 -18 -2 -33 14 -20 21 -21 27 -10 48 8 12 16 54 19 91 l5 69 -45 -7 c-25 -4 -58 -13 -75 -21 -17 -9 -31 -11 -33 -5 -2 5 -19 30 -38 55 -35 46 -41 65 -25 82 6 5 5 15 -3 26 -11 15 -13 15 -25 -4z m47 -131 c27 -39 57 -116 48 -125 -2 -2 -20 0 -40 3 -23 5 -36 13 -37 24 -1 15 -2 15 -6 0 -2 -10 -21 -21 -44 -27 -35 -9 -39 -8 -39 9 0 28 26 87 56 126 14 18 27 33 29 33 2 0 17 -19 33 -43z m-150 -43 c20 -6 22 -11 16 -43 -8 -53 -12 -61 -27 -61 -13 0 -28 24 -41 63 -6 20 23 24 42 5 7 -7 12 -8 12 -2 0 11 -42 34 -60 34 -15 0 -11 -52 5 -80 18 -32 18 -40 1 -40 -18 0 -36 52 -36 105 l0 43 33 -8 c17 -5 42 -12 55 -16z m311 -95 c-6 -16 -17 -29 -25 -29 -10 0 -10 5 2 28 17 34 19 92 2 92 -21 0 -34 -13 -53 -50 l-18 -35 22 19 c11 11 21 25 21 33 0 7 7 13 16 13 13 0 15 -6 9 -27 -3 -14 -12 -34 -19 -44 -11 -16 -15 -17 -33 -4 -12 9 -22 29 -25 50 -5 41 10 54 72 65 l35 5 3 -44 c2 -24 -2 -57 -9 -72z m-45 -48 c17 -11 44 -33 59 -49 l28 -29 -32 -27 c-38 -32 -149 -90 -149 -78 0 5 9 17 20 27 52 47 46 133 -13 180 l-32 25 44 -15 c24 -8 58 -24 75 -34z m-230 8 c-24 -25 -29 -39 -29 -79 0 -40 5 -54 29 -79 17 -17 24 -31 18 -31 -20 0 -106 47 -141 76 l-32 27 33 34 c30 31 119 83 142 83 5 0 -3 -14 -20 -31z m138 -6 c15 -16 30 -40 33 -55 9 -36 -18 -89 -56 -112 -26 -15 -35 -16 -60 -6 -63 26 -85 89 -54 150 30 57 94 68 137 23z m-186 -184 l39 -20 -54 5 c-29 3 -55 7 -57 9 -2 1 -1 13 3 25 4 17 9 20 18 12 7 -6 30 -20 51 -31z m317 -11 c-10 -3 -36 -7 -57 -7 l-39 -1 44 24 c40 22 45 22 57 8 10 -14 10 -18 -5 -24z m-209 -14 c9 -3 16 -15 16 -27 0 -19 -1 -20 -20 -2 -30 27 -28 41 4 29z m66 -2 c0 -5 -9 -17 -20 -27 -19 -18 -20 -17 -20 3 0 18 11 29 33 31 4 1 7 -3 7 -7z"></path> <path d="M338 543 c-23 -26 -48 -79 -47 -100 0 -10 11 5 23 33 13 28 29 55 35 58 7 5 21 -13 36 -46 14 -29 25 -44 25 -34 0 17 -45 106 -54 106 -2 0 -10 -8 -18 -17z"></path> <path d="M515 301 c-3 -5 -2 -12 3 -15 5 -3 9 1 9 9 0 17 -3 19 -12 6z"></path> <path d="M487 259 c7 -7 15 -10 18 -7 3 3 -2 9 -12 12 -14 6 -15 5 -6 -5z"></path> <path d="M310 319 c-25 -45 19 -100 62 -78 32 17 41 48 23 75 -20 31 -69 33 -85 3z m41 -13 c-8 -10 -8 -16 2 -25 8 -6 17 -8 21 -4 4 4 4 -1 0 -12 -5 -11 -9 -14 -12 -7 -2 7 -10 12 -17 12 -18 0 -26 25 -12 39 16 16 32 14 18 -3z m29 -6 c0 -5 -5 -10 -11 -10 -5 0 -7 5 -4 10 3 6 8 10 11 10 2 0 4 -4 4 -10z"></path> <path d="M400 606 c0 -4 7 -14 15 -22 8 -9 15 -11 15 -6 0 5 -7 15 -15 22 -8 7 -15 9 -15 6z"></path> <path d="M270 581 c0 -8 -7 -11 -15 -7 -10 4 -15 -1 -15 -14 0 -11 4 -20 10 -20 12 0 34 40 26 48 -3 3 -6 0 -6 -7z"></path> <path d="M440 561 c0 -6 5 -13 10 -16 6 -3 10 1 10 9 0 9 -4 16 -10 16 -5 0 -10 -4 -10 -9z"></path> <path d="M94 462 c3 -5 0 -13 -6 -15 -9 -4 -10 -6 -1 -6 17 -1 25 16 12 25 -7 4 -9 3 -5 -4z"></path> <path d="M595 450 c3 -5 8 -10 11 -10 2 0 4 5 4 10 0 6 -5 10 -11 10 -5 0 -7 -4 -4 -10z"></path> <path d="M620 431 c0 -6 4 -13 10 -16 6 -3 7 1 4 9 -7 18 -14 21 -14 7z"></path> <path d="M105 389 c-4 -6 -5 -13 -2 -16 7 -7 27 6 27 18 0 12 -17 12 -25 -2z"></path> <path d="M580 391 c0 -5 8 -12 18 -16 15 -7 14 -9 -8 -15 -23 -7 -22 -8 11 -9 19 -1 40 -6 46 -12 13 -13 33 -4 33 16 0 17 -27 27 -36 14 -4 -6 -14 -2 -25 10 -21 22 -39 27 -39 12z"></path> <path d="M75 330 c3 -5 11 -10 16 -10 6 0 7 5 4 10 -3 6 -11 10 -16 10 -6 0 -7 -4 -4 -10z"></path> <path d="M609 218 c-6 -20 -5 -38 1 -48 5 -7 7 0 6 19 -1 26 -4 39 -7 29z"></path> </g> </svg>